<?xml version="1.0" encoding="utf-8"?>
<!-- Generator: Adobe Illustrator 26.1.0, SVG Export Plug-In . SVG Version: 6.00 Build 0)  -->
<svg version="1.1" id="Layer_2_00000036243236618712183740000017485905712282758306_"
	 xmlns="http://www.w3.org/2000/svg" xmlns:xlink="http://www.w3.org/1999/xlink" x="0px" y="0px" viewBox="0 0 260 66"
	 style="enable-background:new 0 0 260 66;" xml:space="preserve">
<style type="text/css">
	.st0{fill:#ffffff;}
	.st1{fill:#ffffff;}
</style>
<path class="st0" d="M23.6,37.1l-0.8,0.5c-1.9,1.2-3.5,2.6-5,4.3l-3.2-3.9c-2.3-2.4-2.3-6.3,0-8.9l9-10.9l0,0l9,10.9
	c2.3,2.7,2.3,6.5,0,8.9L29.2,42c-1.5-1.6-3.1-3.1-5-4.3l-0.8-0.5"/>
<path class="st0" d="M63.4,25.2c0.4,2.3,1.9,3.4,4.1,3.4c2.2,0,3.5-1.1,3.5-3c0-2-0.9-2.8-4.1-3.8c-3.9-1.2-5.4-2.6-5.4-5.1
	c0-3,2.3-4.9,5.8-4.9c4.1,0,5.8,2.3,5.9,5h-2.6c-0.3-1.8-1.2-3-3.5-3c-2,0-3.1,0.9-3.1,2.6s0.9,2.3,3.8,3.1c4.6,1.4,5.7,3.1,5.7,5.7
	c0,3.1-2.2,5.4-6.2,5.4c-3.9,0-6.2-2-6.5-5.4L63.4,25.2 M77.4,24.2c0,2.6,1.1,4.6,3.4,4.6c2,0,2.7-1.5,3-2.2h2.4
	c-0.5,1.8-1.9,4.2-5.5,4.2c-4.3,0-5.8-3.2-5.8-7.2c0-3.4,1.6-7,5.9-7c4.3,0,5.5,3.4,5.5,6.5c0,0.1,0,0.9,0,1.1L77.4,24.2 M84.1,22.4
	c-0.1-2.2-0.9-3.8-3.2-3.8c-2.6,0-3.2,2.3-3.2,3.8H84.1z M98.5,27.4c0,0.9,0.1,2.3,0.1,3.1h-2.3c-0.1-0.4-0.1-1.2-0.1-2
	c-0.5,1.4-1.9,2.3-4.1,2.3c-3.4,0-4.3-2.2-4.3-4.2c0-2.2,1.4-4.3,6.2-4.3c0.7,0,1.4,0,2,0V21c0-1.2-0.4-2.6-2.6-2.6
	c-1.9,0-2.6,0.9-2.7,2.3h-2.4c0.1-2.3,1.5-4.2,5.3-4.2c3,0,4.9,1.1,4.9,4.3V27.4 M96.2,23.9c-0.5,0-1.2,0-2,0
	c-3.1,0-3.8,1.2-3.8,2.4c0,1.2,0.8,2.3,2.4,2.3c2.6,0,3.4-1.8,3.4-4.5V23.9z M101.7,21.5c0-2.2,0-3.9,0-4.6h2.4c0,0.7,0,1.5,0,2.7
	c0.5-1.6,2-3,4.3-3v2.6c-3,0.1-4.3,1.8-4.3,4.7v6.6h-2.4V21.5 M120.2,26c-0.5,2.7-2.2,4.7-5.5,4.7c-3.9,0-5.8-2.6-5.8-7
	c0-4.1,2-7,5.9-7c3.8,0,5.3,2.7,5.4,4.9h-2.6c-0.3-1.5-1.1-2.8-3-2.8c-2.3,0-3.4,2-3.4,5c0,3.4,1.2,5.1,3.4,5.1c1.8,0,2.6-1.1,3-2.7
	h2.6 M124.8,10.9v7.7c0.7-1.2,2-2.2,4.1-2.2c2,0,4.3,1.1,4.3,4.9v9h-2.4v-8.5c0-2-0.8-3.1-2.7-3.1c-2.2,0-3.1,1.4-3.1,4.1v7.7h-2.4
	V10.9H124.8 M142.8,30.5V18.9h-2v-2h2v-1.6c0-2.4,0.9-4.5,3.8-4.5c0.4,0,0.9,0,1.4,0.1v2c-0.3,0-0.7-0.1-1.1-0.1
	c-1.2,0-1.6,0.8-1.6,2.3v1.6h2.4v2h-2.4v11.6h-2.4 M160.2,23.5c0,3.9-1.8,7.3-6.2,7.3c-4.3,0-5.9-3.5-5.9-7.2c0-3.5,1.9-6.9,6.2-6.9
	C158.2,16.6,160.2,19.6,160.2,23.5 M150.6,23.5c0,3.1,1.2,5.1,3.6,5.1s3.5-2,3.5-5.3c0-3-1.2-4.9-3.5-4.9
	C151.8,18.6,150.6,20.6,150.6,23.5z M162.6,21.5c0-2.2,0-3.9,0-4.6h2.4c0,0.7,0,1.5,0,2.7c0.5-1.6,2-3,4.3-3v2.6
	c-3,0.1-4.3,1.8-4.3,4.7v6.6h-2.4V21.5 M76.2,48.6c-0.5,3.6-2.8,6.5-7.8,6.5c-6.2,0-8.2-4.3-8.2-9.5c0-5.3,2.7-9.6,8.4-9.6
	c5.5,0,7.4,3.5,7.6,6.3h-5c-0.3-1.4-0.7-2.6-2.7-2.6c-2.3,0-3.1,2.4-3.1,5.8s0.8,5.8,3.1,5.8c2,0,2.6-1.5,2.7-2.7h5.1 M91.1,47.4
	c0,3.9-1.9,7.6-7.2,7.6c-5.3,0-7-3.6-7-7.4c0-3.1,1.6-7.2,7.3-7.2C89.5,40.4,91.1,44.1,91.1,47.4 M81.9,47.5c0,2.8,0.7,4.1,2.2,4.1
	c1.4,0,2-1.2,2-4.1c0-2.7-0.7-3.8-2.2-3.8C82.6,43.7,81.9,44.8,81.9,47.5z M92.3,40.6H97c0.1,0.4,0.1,1.1,0.1,1.5
	c0.8-1.1,2-1.8,3.8-1.8c2,0,3,0.9,3.4,2c0.7-0.9,2-2,4.2-2c2.6,0,4.5,1.6,4.5,5v9.3h-4.9v-8.8c0-0.9-0.3-1.9-1.5-1.9
	c-1.2,0-1.6,0.8-1.6,2.6v8.1h-4.9v-8.8c0-0.9-0.4-1.8-1.5-1.8c-1.2,0-1.8,0.7-1.8,2.7v8h-4.6L92.3,40.6z M115.5,40.6h4.7
	c0.1,0.4,0.1,1.1,0.1,1.5c0.8-1.1,2-1.8,3.8-1.8c2,0,3,0.9,3.4,2c0.7-0.9,2-2,4.2-2c2.6,0,4.5,1.6,4.5,5v9.3h-4.9v-8.8
	c0-0.9-0.3-1.9-1.5-1.9c-1.2,0-1.6,0.8-1.6,2.6v8.1h-4.9v-8.8c0-0.9-0.4-1.8-1.5-1.8c-1.2,0-1.8,0.7-1.8,2.7v8h-4.6L115.5,40.6z
	 M152.2,47.4c0,3.9-1.9,7.6-7.2,7.6c-5.3,0-7-3.6-7-7.4c0-3.1,1.6-7.2,7.3-7.2C150.5,40.4,152.2,44.1,152.2,47.4 M142.9,47.5
	c0,2.8,0.7,4.1,2.2,4.1c1.4,0,2-1.2,2-4.1c0-2.7-0.7-3.8-2.2-3.8C143.7,43.7,142.9,44.8,142.9,47.5z M153.9,45c0-2.8,0-3.8,0-4.5
	h4.7c0,0.3,0.1,1.1,0.1,1.6c0.7-0.9,1.9-1.9,3.8-1.9c2.8,0,4.3,1.9,4.3,5v9.3H162v-8.4c0-1.4-0.3-2.2-1.5-2.2
	c-1.1,0-1.8,0.5-1.8,2.6v8.1h-4.9V45 M188.8,54.7h-3.5c-0.1-0.5-0.3-1.4-0.3-1.9c-0.9,1.6-2.7,2.2-5,2.2c-5.3,0-7.6-4.3-7.6-9.3
	c0-5.4,3-9.7,8.8-9.7c5.1,0,7.3,2.7,7.6,5.8h-5c-0.3-0.9-0.8-2-2.8-2c-2.4,0-3.4,2.4-3.4,5.9c0,3.4,0.9,5.7,3.4,5.7
	c2.2,0,2.7-1.5,2.7-3.2v-0.1h-3v-3.6h8C188.8,49.1,188.8,54.1,188.8,54.7 M191.4,45.4c0-2.4,0-3.9,0-4.7h4.7c0,0.5,0.1,1.8,0.1,2.6
	c0.4-1.4,1.8-2.8,4.1-2.8V45c-3,0-4.1,0.8-4.1,3.8v5.9h-4.9V45.4 M214.5,47.4c0,3.9-1.9,7.6-7.2,7.6c-5.3,0-7-3.6-7-7.4
	c0-3.1,1.6-7.2,7.3-7.2C212.9,40.4,214.5,44.1,214.5,47.4 M205.3,47.5c0,2.8,0.7,4.1,2.2,4.1c1.4,0,2-1.2,2-4.1
	c0-2.7-0.7-3.8-2.2-3.8C206.1,43.7,205.3,44.8,205.3,47.5z M229.1,50.4c0,2.3,0,3.6,0,4.3h-4.7c-0.1-0.4-0.1-1.1-0.1-1.5
	c-0.9,1.4-2,1.8-3.8,1.8c-3,0-4.3-1.8-4.3-4.9v-9.5h4.9v8.6c0,1.2,0.4,1.9,1.5,1.9c1.1,0,1.8-0.7,1.8-2.6v-8.1h4.9L229.1,50.4
	 M231.5,45c0-2.8,0-3.8,0-4.5h4.7c0,0.3,0.1,1.1,0.1,1.6c0.7-0.9,1.9-1.9,3.8-1.9c2.8,0,4.3,1.9,4.3,5v9.3h-4.9v-8.4
	c0-1.4-0.3-2.2-1.5-2.2c-1.1,0-1.8,0.5-1.8,2.6v8.1h-4.9L231.5,45 M260,35.4v15.1c0,1.9,0,3.4,0,4.2h-4.7c0-0.3-0.1-0.9-0.1-1.4
	c-0.7,1.1-1.8,1.8-3.8,1.8c-3.6,0-5.3-3.2-5.3-7.3c0-4.3,2.2-7.4,5.9-7.4c1.8,0,2.7,0.5,3,1.1v-6.1H260 M251.2,47.5
	c0,2.6,0.5,3.9,2,3.9c1.8,0,2-1.2,2-3.9s-0.3-3.6-2-3.6C252,43.9,251.2,45,251.2,47.5z"/>
<path class="st1" d="M9.7,38.2c-2.6-2.7-2.4-6.6,0-9.2L21,15.4l-5-6.2L3,24.8c-4.2,5.4-3.9,12.7,0,17.7l20.4,23.2l5.1-5.9L9.7,38.2"
	/>
<path class="st1" d="M37.2,29c2.6,2.7,2.4,6.6,0,9.3L26,51l5.3,5.8L44,42.4c4.2-5.4,3.8-12.7,0-17.7L23.4,0.3l-5,6.1L37.2,29"/>
</svg>
